<svg xmlns="http://www.w3.org/2000/svg" width="23.744" height="20" viewBox="0 0 23.744 20">
  <path id="Path_4248" data-name="Path 4248" d="M199.632-3064.909h2.24a1.935,1.935,0,0,1,1.232.416,1.906,1.906,0,0,1,.688,1.088l2.624,10.5H217.9l1.888-7.008H206.16l-.512-2.016h16.736l-2.592,9.536a1.9,1.9,0,0,1-.688,1.056,1.888,1.888,0,0,1-1.2.416H206.416a1.955,1.955,0,0,1-1.216-.416,1.876,1.876,0,0,1-.7-1.088l-2.624-10.5h-2.24a.958.958,0,0,1-.7-.288.958.958,0,0,1-.288-.7.958.958,0,0,1,.288-.7A.958.958,0,0,1,199.632-3064.909Zm8,13.984a2.875,2.875,0,0,1,2.128.9,2.913,2.913,0,0,1,.88,2.112,2.913,2.913,0,0,1-.88,2.112,2.875,2.875,0,0,1-2.128.9,2.845,2.845,0,0,1-2.112-.88,2.908,2.908,0,0,1-.864-2.112,2.933,2.933,0,0,1,.88-2.128A2.839,2.839,0,0,1,207.632-3050.925Zm0,2.016a.958.958,0,0,0-.7.288.958.958,0,0,0-.288.7.958.958,0,0,0,.288.7.958.958,0,0,0,.7.288,1.013,1.013,0,0,0,.72-.288.932.932,0,0,0,.3-.7.958.958,0,0,0-.288-.7A1,1,0,0,0,207.632-3048.909Zm9.024-2.016a2.839,2.839,0,0,1,2.1.9,2.913,2.913,0,0,1,.88,2.112,2.913,2.913,0,0,1-.88,2.112,2.839,2.839,0,0,1-2.1.9,2.89,2.89,0,0,1-2.112-.9,2.89,2.89,0,0,1-.9-2.112,2.913,2.913,0,0,1,.88-2.112A2.875,2.875,0,0,1,216.656-3050.925Zm0,2.016a1,1,0,0,0-.736.288.958.958,0,0,0-.288.7.958.958,0,0,0,.288.7,1,1,0,0,0,.736.288.943.943,0,0,0,.72-.288.989.989,0,0,0,.272-.7.958.958,0,0,0-.288-.7A.958.958,0,0,0,216.656-3048.909Z" transform="translate(-198.64 3064.909)" fill="#212121"/>
</svg>
