<svg xmlns="http://www.w3.org/2000/svg" width="70" height="51.59" viewBox="0 0 70 51.59">
  <path id="Path_4308" data-name="Path 4308" d="M398.27-1838.735a1.853,1.853,0,0,1,1.34.584,1.85,1.85,0,0,1,.582,1.34v39.226a2.967,2.967,0,0,1-.034.481,2.9,2.9,0,0,1-.1.412,2.343,2.343,0,0,1-.893,1.1,2.9,2.9,0,0,1-1.374.481H382.537a2.519,2.519,0,0,1,.034-.413,2.5,2.5,0,0,0,.034-.412,5.54,5.54,0,0,0-.1-1.064,3.668,3.668,0,0,0-.309-.927h15.181v-37.989H360.212v37.989h11.266V-1798a5.023,5.023,0,0,0-.309,1,5.416,5.416,0,0,0-.1,1.064,2.339,2.339,0,0,0,.034.412,2.519,2.519,0,0,1,.034.413H359.319a2.186,2.186,0,0,1-1.34-.619,1.8,1.8,0,0,1-.584-1.372v-39.776a1.787,1.787,0,0,1,.55-1.306,1.79,1.79,0,0,1,1.306-.549Zm-13.122,40.806V-1798a3.711,3.711,0,0,1,.172.927c.023.344.034.676.034.995v.962a8.387,8.387,0,0,1-2.783,5.462,8.215,8.215,0,0,1-5.735,2.232,8.3,8.3,0,0,1-5.8-2.232,8.1,8.1,0,0,1-2.714-5.462v-.825c0-.365.011-.72.034-1.064a3.714,3.714,0,0,1,.172-.927V-1798a8.414,8.414,0,0,1,2.989-4.672,8.232,8.232,0,0,1,5.323-1.856,8.242,8.242,0,0,1,5.325,1.856,8.443,8.443,0,0,1,2.987,4.741Zm-8.312,7.762a5.537,5.537,0,0,0,3.813-1.442,5.57,5.57,0,0,0,1.888-3.5,2.519,2.519,0,0,1,.034-.413,2.5,2.5,0,0,0,.034-.412,5.82,5.82,0,0,0-1.785-3.949,5.487,5.487,0,0,0-3.985-1.615,5.481,5.481,0,0,0-3.983,1.615,5.822,5.822,0,0,0-1.786,3.949,2.339,2.339,0,0,0,.034.412,2.519,2.519,0,0,1,.034.413,5.948,5.948,0,0,0,1.924,3.5,5.406,5.406,0,0,0,3.777,1.442Zm50.49-23.495a1.57,1.57,0,0,0,.034.309,1.945,1.945,0,0,1,.034.378v13.878a2.365,2.365,0,0,1-.687,1.683,2.27,2.27,0,0,1-1.716.721h-6.665v-.068a6.825,6.825,0,0,0-.447-1.477,4.755,4.755,0,0,0-.789-1.271h7.556v-13.328l-.687-.824-10.373-12.914h-13.67v27.066h8.243a4.723,4.723,0,0,0-.79,1.271,6.7,6.7,0,0,0-.447,1.546h-6.869a2.609,2.609,0,0,1-1.58-.79,2.257,2.257,0,0,1-.618-1.614v-30.227h16.212a2.16,2.16,0,0,1,.824.172,1.736,1.736,0,0,1,.687.515l11.333,14.152q.138.206.241.378a1.662,1.662,0,0,1,.172.445Zm-6.182,16.969a1.912,1.912,0,0,0,.034.377,1.936,1.936,0,0,1,.034.378v.274a8.2,8.2,0,0,1-2.508,6.012,8.194,8.194,0,0,1-6.01,2.506,8.272,8.272,0,0,1-6.079-2.506,8.2,8.2,0,0,1-2.508-6.012v-1.1a8.236,8.236,0,0,1,2.714-5.5,8.229,8.229,0,0,1,5.8-2.268,8.234,8.234,0,0,1,5.8,2.268,8.3,8.3,0,0,1,2.714,5.565Zm-8.518,6.526a5.571,5.571,0,0,0,4.088-1.683,5.57,5.57,0,0,0,1.682-4.089,2.474,2.474,0,0,0-.034-.411,2.158,2.158,0,0,1-.034-.344v-.068a5.434,5.434,0,0,0-1.888-3.47,5.616,5.616,0,0,0-3.813-1.408,5.482,5.482,0,0,0-3.777,1.408,5.831,5.831,0,0,0-1.924,3.538v.344a1.346,1.346,0,0,1-.069.411,5.559,5.559,0,0,0,1.683,4.089,5.562,5.562,0,0,0,4.086,1.683Zm14.769-22.808a1.945,1.945,0,0,0-.034-.378,1.57,1.57,0,0,1-.034-.309H410.7a.519.519,0,0,1-.378-.172.519.519,0,0,1-.172-.376v-7.008a.564.564,0,0,1,.137-.412.565.565,0,0,1,.412-.138h10.373l-2.267-2.815H410.7a3.232,3.232,0,0,0-2.369,1,3.229,3.229,0,0,0-1,2.369v7.008a3.282,3.282,0,0,0,.962,2.369,3.193,3.193,0,0,0,2.4,1H427.4Z" transform="translate(-357.395 1838.735)" fill="#212121"/>
</svg>
