<svg xmlns="http://www.w3.org/2000/svg" width="70" height="70" viewBox="0 0 70 70">
  <path id="Path_4319" data-name="Path 4319" d="M2096.239-2454.837h21.552v5.345h-9.828a34.672,34.672,0,0,1,9.138,11.81,35.258,35.258,0,0,1,3.362,15.172,33.745,33.745,0,0,1-4.828,17.586,34.76,34.76,0,0,1-12.586,12.586,33.757,33.757,0,0,1-17.585,4.828,33.745,33.745,0,0,1-17.586-4.828,34.753,34.753,0,0,1-12.586-12.586,33.722,33.722,0,0,1-4.828-17.586v-2.672h5.345v2.672a28.915,28.915,0,0,0,4.051,14.914,29.752,29.752,0,0,0,10.69,10.69,28.915,28.915,0,0,0,14.914,4.051,28.921,28.921,0,0,0,14.913-4.051,29.771,29.771,0,0,0,10.69-10.69,28.938,28.938,0,0,0,4.051-14.914,29.061,29.061,0,0,0-3.707-14.4,30.2,30.2,0,0,0-9.742-10.431v14.052h-5.431Zm-43.189,18.879,4.914,2.241v.086l-.862,2.155-.6,2.155-5.086-1.465.518-2.241.086-.172v-.086l.862-2.155v-.087l.086-.086Zm5.69-9.224,4.137,3.535-.6.689v.086l-1.207,1.638-.172.173-.776,1.206-4.569-2.931,1.034-1.551v-.087l1.638-1.982Zm8.275-6.982,2.845,4.568-1.207.862-.172.086-1.552,1.121-.173.086-.6.518-3.534-4.052.775-.69h.173l1.9-1.465h.086l.086-.087Zm9.914-4.224,1.552,5.172-2.069.6-2.241.862h-.086l-2.242-4.914.259-.086.086-.086h.086l2.241-.862h.086l.087-.086Zm5.862-1.121h2.673v5.345h-2.673Z" transform="translate(-2050.463 2457.51)" fill="#333"/>
</svg>
