<svg xmlns="http://www.w3.org/2000/svg" width="70" height="70" viewBox="0 0 70 70">
  <path id="Path_4320" data-name="Path 4320" d="M2464.877-2451.695a34.267,34.267,0,0,1,17.64-4.76,34.269,34.269,0,0,1,17.64,4.76,35,35,0,0,1,12.6,12.6,34.269,34.269,0,0,1,4.76,17.64,34.267,34.267,0,0,1-4.76,17.64,34.959,34.959,0,0,1-12.6,12.6,34.269,34.269,0,0,1-17.64,4.76,34.267,34.267,0,0,1-17.64-4.76,34.916,34.916,0,0,1-12.6-12.6,34.267,34.267,0,0,1-4.76-17.64,34.269,34.269,0,0,1,4.76-17.64,34.959,34.959,0,0,1,12.6-12.6Zm-11.293,27.346c-.127,1.247-.187,2.21-.187,2.894s.06,1.65.187,2.894h8.773l-.094-.934a14.908,14.908,0,0,1-.187-1.96q0-1.025.187-2.894Zm1.027,11.667a28.826,28.826,0,0,0,7.233,11.9,28.826,28.826,0,0,0,11.9,7.233v-9.52a19.842,19.842,0,0,1-5.647-3.966,19.833,19.833,0,0,1-3.966-5.647Zm19.133-36.68a28.538,28.538,0,0,0-11.854,7.233,29.126,29.126,0,0,0-7.187,11.9h9.427a19.9,19.9,0,0,1,3.966-5.647,19.943,19.943,0,0,1,5.647-3.967Zm8.773,13.347a14.116,14.116,0,0,0-7.327,1.96,14.776,14.776,0,0,0-5.273,5.273,14.129,14.129,0,0,0-1.96,7.327,14.121,14.121,0,0,0,1.96,7.327,14.765,14.765,0,0,0,5.273,5.273,14.121,14.121,0,0,0,7.327,1.96,14.129,14.129,0,0,0,7.327-1.96,14.776,14.776,0,0,0,5.273-5.273,14.116,14.116,0,0,0,1.96-7.327,14.125,14.125,0,0,0-1.96-7.327,14.788,14.788,0,0,0-5.273-5.273A14.125,14.125,0,0,0,2482.517-2436.015Zm2.894-14.467q-1.87-.185-2.894-.187t-2.894.187v8.867l.934-.093a15.42,15.42,0,0,1,1.96-.186,15.49,15.49,0,0,1,1.96.186l.934.093v-8.867Zm-5.787,49.187v8.773c1.244.127,2.208.187,2.894.187s1.647-.06,2.894-.187v-8.773l-.934.094a14.973,14.973,0,0,1-1.96.187,14.908,14.908,0,0,1-1.96-.187Zm11.667-48.066v9.52a20.012,20.012,0,0,1,5.647,3.967,20.012,20.012,0,0,1,3.967,5.647h9.52a28.93,28.93,0,0,0-7.233-11.9A28.924,28.924,0,0,0,2491.29-2449.362Zm9.614,36.68a19.943,19.943,0,0,1-3.967,5.647,19.911,19.911,0,0,1-5.647,3.966v9.52a28.862,28.862,0,0,0,11.9-7.233,28.889,28.889,0,0,0,7.233-11.9Zm1.773-11.667a7.385,7.385,0,0,0,.093.934,15.49,15.49,0,0,1,.186,1.96,15.42,15.42,0,0,1-.186,1.96l-.093.934h8.867q.185-1.865.187-2.894t-.187-2.894Z" transform="translate(-2447.517 2456.455)" fill="#333"/>
</svg>
