<svg xmlns="http://www.w3.org/2000/svg" width="18" height="15.49" viewBox="0 0 18 15.49">
  <path id="Path_4249" data-name="Path 4249" d="M137.38-3067.149a5.8,5.8,0,0,1,4.176,1.893,5.8,5.8,0,0,1,4.176-1.893,4.64,4.64,0,0,1,2.407.658,4.97,4.97,0,0,1,1.769,1.769,4.633,4.633,0,0,1,.658,2.406,3.507,3.507,0,0,1-.247,1.276,5.353,5.353,0,0,1-.555,1.029,6.245,6.245,0,0,1-.555.679l-7.179,7.221-.473.453-7.653-7.694a4.76,4.76,0,0,1-.535-.678,4.338,4.338,0,0,1-.8-2.284,4.693,4.693,0,0,1,.648-2.406,4.889,4.889,0,0,1,1.759-1.769A4.64,4.64,0,0,1,137.38-3067.149Zm1.378,1.584a3.712,3.712,0,0,0-1.378-.288,3.421,3.421,0,0,0-1.779.483,3.591,3.591,0,0,0-1.286,1.3,3.439,3.439,0,0,0-.473,1.759,2.98,2.98,0,0,0,.576,1.564,4,4,0,0,0,.432.555l6.706,6.706,6.5-6.5.309-.391a5.222,5.222,0,0,0,.6-.885,2.447,2.447,0,0,0,.309-1.049,3.439,3.439,0,0,0-.473-1.759,3.585,3.585,0,0,0-1.286-1.3,3.419,3.419,0,0,0-1.779-.483,3.715,3.715,0,0,0-1.378.288,7.288,7.288,0,0,0-1.193.638,9.712,9.712,0,0,0-.823.658l-.309.288-.473.535-.473-.535-.309-.288a9.714,9.714,0,0,0-.823-.658,7.259,7.259,0,0,0-1.193-.638Z" transform="translate(-132.566 3067.149)" fill="#333"/>
</svg>
