<svg xmlns="http://www.w3.org/2000/svg" width="18.75" height="20.64" viewBox="0 0 18.75 20.64">
  <path id="Path_4246" data-name="Path 4246" d="M71.013-3066.537a6.4,6.4,0,0,1,3.285.885,6.577,6.577,0,0,1,2.4,2.4,6.4,6.4,0,0,1,.885,3.285,6.293,6.293,0,0,1-.795,3.09,6.989,6.989,0,0,1-2.115,2.37,9.4,9.4,0,0,1,2.97,2.01,8.995,8.995,0,0,1,1.98,2.97,9.079,9.079,0,0,1,.75,3.63h-1.86a7.348,7.348,0,0,0-1-3.765,7.449,7.449,0,0,0-2.73-2.73,7.348,7.348,0,0,0-3.765-1,7.348,7.348,0,0,0-3.765,1,7.449,7.449,0,0,0-2.73,2.73,7.348,7.348,0,0,0-1,3.765h-1.89a9.051,9.051,0,0,1,1.62-5.22,9.186,9.186,0,0,1,4.11-3.39,6.989,6.989,0,0,1-2.115-2.37,6.293,6.293,0,0,1-.795-3.09,6.4,6.4,0,0,1,.885-3.285,6.577,6.577,0,0,1,2.4-2.4A6.4,6.4,0,0,1,71.013-3066.537Zm0,1.89a4.54,4.54,0,0,0-2.355.63,4.749,4.749,0,0,0-1.695,1.7,4.54,4.54,0,0,0-.63,2.355,4.539,4.539,0,0,0,.63,2.355,4.747,4.747,0,0,0,1.695,1.7,4.54,4.54,0,0,0,2.355.63,4.54,4.54,0,0,0,2.355-.63,4.747,4.747,0,0,0,1.7-1.7,4.539,4.539,0,0,0,.63-2.355,4.54,4.54,0,0,0-.63-2.355,4.712,4.712,0,0,0-1.71-1.7A4.564,4.564,0,0,0,71.013-3064.647Z" transform="translate(-61.623 3066.537)" fill="#212121"/>
</svg>
