<svg xmlns="http://www.w3.org/2000/svg" width="19" height="20" viewBox="0 0 19 20">
  <path id="Path_4201" data-name="Path 4201" d="M707.14,923.3a.668.668,0,0,1-.686.788.714.714,0,0,1-.543-.22l-3.963-4.171a8.17,8.17,0,0,1-3.487,1.836,8.021,8.021,0,0,1-7.278-1.836,8.7,8.7,0,0,1-2.534-3.771,9.058,9.058,0,0,1-.381-4.431,8.886,8.886,0,0,1,1.829-4.2,8.326,8.326,0,0,1,3.582-2.685,7.717,7.717,0,0,1,4.173-.4,8.08,8.08,0,0,1,3.973,1.956,8.885,8.885,0,0,1,2.543,3.791,9.058,9.058,0,0,1,.381,4.431,8.625,8.625,0,0,1-1.848,4.19l3.963,4.151A1.018,1.018,0,0,1,707.14,923.3Zm-16.6-6.716a7.127,7.127,0,0,0,2.5,2.595,6.424,6.424,0,0,0,3.467.988,6.574,6.574,0,0,0,3.468-1.008,7.079,7.079,0,0,0,2.457-2.575,7.36,7.36,0,0,0,0-7.243,7.037,7.037,0,0,0-2.457-2.595,6.526,6.526,0,0,0-6.936,0,7.3,7.3,0,0,0-3.448,6.206,7.215,7.215,0,0,0,.953,3.632Z" transform="translate(-688.149 -904.09)" fill="#212121"/>
</svg>
