<svg xmlns="http://www.w3.org/2000/svg" width="11.142" height="10.627" viewBox="0 0 11.142 10.627">
  <path id="Path_4260" data-name="Path 4260" d="M402.046-2043.567q.375.06.375.308a.484.484,0,0,1-.174.321l-2.431,2.371.576,3.348a.918.918,0,0,1,.007.134.394.394,0,0,1-.07.238.239.239,0,0,1-.205.1.535.535,0,0,1-.267-.081l-3.007-1.58-3.007,1.58a.563.563,0,0,1-.268.081.246.246,0,0,1-.211-.1.4.4,0,0,1-.07-.238,1.112,1.112,0,0,1,.014-.134l.575-3.348-2.437-2.371a.5.5,0,0,1-.167-.321c0-.165.124-.268.375-.308l3.361-.489,1.507-3.047c.085-.183.194-.274.328-.274s.243.091.328.274l1.507,3.047,3.361.489Z" transform="translate(-391.279 2047.377)" fill="#f5540d"/>
</svg>
